<svg width="12" height="12" viewBox="0 0 12 12" fill="none" xmlns="http://www.w3.org/2000/svg">
<path d="M1.575 3.21951C2.44485 3.21951 3.15 2.4988 3.15 1.60976C3.15 0.720713 2.44485 0 1.575 0C0.705151 0 0 0.720713 0 1.60976C0 2.4988 0.705151 3.21951 1.575 3.21951Z" fill="white"/>
<path d="M2.72905 4.2439H0.270878C0.204099 4.2439 0.149963 4.29575 0.149963 4.35969V11.8842C0.149963 11.9482 0.204099 12 0.270878 12H2.72905C2.79583 12 2.84996 11.9482 2.84996 11.8842V4.35969C2.84996 4.29575 2.79583 4.2439 2.72905 4.2439Z" fill="white"/>
<path d="M12 7.06699V11.4807C12 11.7662 11.7569 12 11.46 12H9.83982C9.5429 12 9.29978 11.7662 9.29978 11.4807V7.84562C9.29978 7.12908 8.69516 6.54769 7.94999 6.54769C7.20482 6.54769 6.6002 7.12908 6.6002 7.84562V11.4807C6.6002 11.7662 6.35709 12 6.06016 12H4.44004C4.14311 12 3.89999 11.7662 3.89999 11.4807V4.72985C3.89999 4.44433 4.14311 4.21055 4.44004 4.21055H6.06016C6.35709 4.21055 6.6002 4.44433 6.6002 4.72985V5.06225C7.14025 4.38954 8.0342 3.95121 9.03008 3.95121C10.5204 3.95121 12 4.9898 12 7.06699Z" fill="white"/>
</svg>
