<svg width="94" height="95" viewBox="0 0 94 95" fill="none" xmlns="http://www.w3.org/2000/svg">
<rect width="94" height="95" rx="47" fill="url(#paint0_linear_857_606)" fill-opacity="0.05"/>
<g filter="url(#filter0_d_857_606)">
<rect x="12" y="12" width="70" height="71" rx="35" fill="url(#paint1_linear_857_606)" fill-opacity="0.2" shape-rendering="crispEdges"/>
<rect x="12.5" y="12.5" width="69" height="70" rx="34.5" stroke="url(#paint2_linear_857_606)" stroke-opacity="0.2" shape-rendering="crispEdges"/>
<mask id="mask0_857_606" style="mask-type:alpha" maskUnits="userSpaceOnUse" x="27" y="27" width="40" height="41">
<rect x="27" y="27.5" width="40" height="40" fill="#D9D9D9"/>
</mask>
<g mask="url(#mask0_857_606)">
<path d="M35.3334 60.8333C34.1689 60.8333 33.1834 60.43 32.3767 59.6233C31.57 58.8167 31.1667 57.8311 31.1667 56.6667C31.1667 55.5022 31.57 54.5167 32.3767 53.71C33.1834 52.9033 34.1689 52.5 35.3334 52.5H58.6667C59.8311 52.5 60.8167 52.9033 61.6234 53.71C62.43 54.5167 62.8334 55.5022 62.8334 56.6667C62.8334 57.8311 62.43 58.8167 61.6234 59.6233C60.8167 60.43 59.8311 60.8333 58.6667 60.8333H35.3334ZM35.3334 58.3333H58.6667C59.1389 58.3333 59.5347 58.1736 59.8542 57.8542C60.1736 57.5347 60.3334 57.1389 60.3334 56.6667C60.3334 56.1944 60.1736 55.7986 59.8542 55.4792C59.5347 55.1597 59.1389 55 58.6667 55H35.3334C34.8611 55 34.4653 55.1597 34.1459 55.4792C33.8264 55.7986 33.6667 56.1944 33.6667 56.6667C33.6667 57.1389 33.8264 57.5347 34.1459 57.8542C34.4653 58.1736 34.8611 58.3333 35.3334 58.3333ZM45.1346 49.1667C44.7096 49.1667 44.3534 49.0229 44.0659 48.7354C43.7784 48.4479 43.6346 48.0917 43.6346 47.6667V35.6667C43.6346 35.2417 43.7784 34.8854 44.0659 34.5979C44.3534 34.3104 44.7096 34.1667 45.1346 34.1667H57.135C57.56 34.1667 57.9161 34.3104 58.2034 34.5979C58.4909 34.8854 58.6346 35.2417 58.6346 35.6667V47.6671C58.6346 48.0921 58.4909 48.4482 58.2034 48.7354C57.9159 49.0229 57.5596 49.1667 57.1346 49.1667H45.1346ZM46.1346 46.6667H56.1346V36.6667H46.1346V46.6667ZM31.1667 46.1988V43.7758H40.2246V46.1988H31.1667ZM47.8013 41.25H54.4679V38.7758H47.8013V41.25ZM34.5 41.25H40.2246V38.7758H34.5V41.25Z" fill="#F2F2F2"/>
</g>
</g>
<defs>
<filter id="filter0_d_857_606" x="8" y="12" width="78" height="79" filterUnits="userSpaceOnUse" color-interpolation-filters="sRGB">
<feFlood flood-opacity="0" result="BackgroundImageFix"/>
<feColorMatrix in="SourceAlpha" type="matrix" values="0 0 0 0 0 0 0 0 0 0 0 0 0 0 0 0 0 0 127 0" result="hardAlpha"/>
<feOffset dy="4"/>
<feGaussianBlur stdDeviation="2"/>
<feComposite in2="hardAlpha" operator="out"/>
<feColorMatrix type="matrix" values="0 0 0 0 0 0 0 0 0 0 0 0 0 0 0 0 0 0 0.25 0"/>
<feBlend mode="normal" in2="BackgroundImageFix" result="effect1_dropShadow_857_606"/>
<feBlend mode="normal" in="SourceGraphic" in2="effect1_dropShadow_857_606" result="shape"/>
</filter>
<linearGradient id="paint0_linear_857_606" x1="47" y1="0" x2="47" y2="95" gradientUnits="userSpaceOnUse">
<stop stop-color="#00CCCC"/>
<stop offset="1.0001" stop-color="#32527B"/>
</linearGradient>
<linearGradient id="paint1_linear_857_606" x1="47" y1="-35.0135" x2="47" y2="195.257" gradientUnits="userSpaceOnUse">
<stop stop-color="#999999"/>
<stop offset="0.0001" stop-color="#898E94"/>
<stop offset="1" stop-color="white"/>
</linearGradient>
<linearGradient id="paint2_linear_857_606" x1="47" y1="-111.291" x2="47" y2="147.284" gradientUnits="userSpaceOnUse">
<stop stop-color="#477CA8"/>
<stop offset="0.716291" stop-color="#32527B" stop-opacity="0.6"/>
</linearGradient>
</defs>
</svg>
