<svg width="862" height="1771" viewBox="0 0 862 1771" fill="none" xmlns="http://www.w3.org/2000/svg">
<g style="mix-blend-mode:overlay">
<g style="mix-blend-mode:soft-light">
<path d="M1264.15 370.068L637.23 738.644L681.688 186.322L1264.15 370.068Z" stroke="white" stroke-width="0.22" stroke-miterlimit="10"/>
<path d="M715.583 264.116L1264.15 370.816L836.017 698.874L715.583 264.116Z" stroke="white" stroke-width="0.22" stroke-miterlimit="10"/>
<path d="M682.324 184.714L1077.21 641.901L637.754 738.418L682.324 184.714Z" stroke="white" stroke-width="0.22" stroke-miterlimit="10"/>
<path d="M1264.34 371.954L1075.38 644.831L868.923 248.229L1264.34 371.954Z" stroke="white" stroke-width="0.22" stroke-miterlimit="10"/>
<path d="M1264.15 371.168L658.874 473.367" stroke="white" stroke-width="0.22" stroke-miterlimit="10"/>
<path d="M681.764 184.452L724.462 718.8" stroke="white" stroke-width="0.22" stroke-miterlimit="10"/>
<path d="M869.659 246.578L637.976 737.145" stroke="white" stroke-width="0.22" stroke-miterlimit="10"/>
<path d="M1172.38 504.782L672.296 291.714" stroke="white" stroke-width="0.22" stroke-miterlimit="10"/>
<path d="M680.065 185.586L1123.11 577.189" stroke="white" stroke-width="0.22" stroke-miterlimit="10"/>
</g>
<g style="mix-blend-mode:soft-light">
<path d="M674.853 1252.91L934.265 475.446L477.817 570.418L674.853 1252.91Z" stroke="white" stroke-width="0.22" stroke-miterlimit="10"/>
<path d="M545.093 605.113L675.425 1252.91L916.149 716.194L545.093 605.113Z" stroke="white" stroke-width="0.22" stroke-miterlimit="10"/>
<path d="M476.59 570.984L886.824 1008.23L933.863 475.843L476.59 570.984Z" stroke="white" stroke-width="0.22" stroke-miterlimit="10"/>
<path d="M676.258 1252.91L889.018 1006.53L543.437 789.854L676.258 1252.91Z" stroke="white" stroke-width="0.22" stroke-miterlimit="10"/>
<path d="M781.439 1133.02L542.624 788.879" stroke="white" stroke-width="0.22" stroke-miterlimit="10"/>
<path d="M675.709 1252.91L715.021 520.978" stroke="white" stroke-width="0.22" stroke-miterlimit="10"/>
<path d="M476.589 570.092L923.842 580.671" stroke="white" stroke-width="0.22" stroke-miterlimit="10"/>
<path d="M542.431 789.729L932.5 476.365" stroke="white" stroke-width="0.22" stroke-miterlimit="10"/>
<path d="M780.214 1133.02L564.747 550.749" stroke="white" stroke-width="0.22" stroke-miterlimit="10"/>
<path d="M476.771 568L837.026 1068.61" stroke="white" stroke-width="0.22" stroke-miterlimit="10"/>
</g>
<g style="mix-blend-mode:soft-light">
<path d="M504.175 799.456L914.08 1466.73L452.826 1524.94L504.175 799.456Z" stroke="white" stroke-width="0.22" stroke-miterlimit="10"/>
<path d="M509.646 1468.71L503.526 799.491L845.8 1239.39L509.646 1468.71Z" stroke="white" stroke-width="0.22" stroke-miterlimit="10"/>
<path d="M453.787 1525.61L760.225 969.902L913.784 1467.55L453.787 1525.61Z" stroke="white" stroke-width="0.22" stroke-miterlimit="10"/>
<path d="M502.534 799.972L757.69 967.745L468.666 1289.77L502.534 799.972Z" stroke="white" stroke-width="0.22" stroke-miterlimit="10"/>
<path d="M628.204 883.121L469.355 1289.77" stroke="white" stroke-width="0.22" stroke-miterlimit="10"/>
<path d="M503.115 799.456L690.819 1495.68" stroke="white" stroke-width="0.22" stroke-miterlimit="10"/>
<path d="M454.62 1525.29L883.422 1368.72" stroke="white" stroke-width="0.22" stroke-miterlimit="10"/>
<path d="M470.449 1291.68L914.574 1467.78" stroke="white" stroke-width="0.22" stroke-miterlimit="10"/>
<path d="M629.126 883.121L540.068 1513.29" stroke="white" stroke-width="0.22" stroke-miterlimit="10"/>
<path d="M453.053 1523.52L696.262 928.084" stroke="white" stroke-width="0.22" stroke-miterlimit="10"/>
</g>
<g style="mix-blend-mode:soft-light">
<path d="M1157.49 2.07597L1567.39 669.352L1106.14 727.564L1157.49 2.07597Z" stroke="white" stroke-width="0.22" stroke-miterlimit="10"/>
</g>
<g style="mix-blend-mode:overlay">
<path d="M783.203 942.435C783.749 941.89 784.149 941.164 784.351 940.351C784.553 939.538 784.548 938.674 784.337 937.872C784.126 937.069 783.718 936.364 783.167 935.848C782.615 935.333 781.945 935.029 781.242 934.978C780.539 934.926 779.837 935.128 779.225 935.558C778.613 935.988 778.12 936.627 777.81 937.391C777.499 938.155 777.385 939.01 777.482 939.845C777.579 940.681 777.883 941.458 778.355 942.078C778.961 942.873 779.802 943.354 780.705 943.421C781.608 943.487 782.502 943.134 783.203 942.435Z" fill="white"/>
<path d="M692.087 924.919C690.454 926.717 690.327 929.742 691.802 931.673C693.277 933.605 695.796 933.713 697.428 931.914C699.061 930.115 699.188 927.091 697.713 925.159C696.238 923.227 693.719 923.12 692.087 924.919Z" fill="white"/>
<path d="M668.632 834.908C669.083 834.412 669.643 834.086 670.243 833.969C670.843 833.853 671.456 833.952 672.004 834.254C672.552 834.556 673.011 835.048 673.322 835.667C673.633 836.286 673.782 837.005 673.752 837.732C673.721 838.459 673.511 839.163 673.149 839.753C672.787 840.343 672.289 840.794 671.718 841.049C671.146 841.303 670.527 841.35 669.939 841.182C669.351 841.015 668.82 840.641 668.413 840.109C667.868 839.395 667.584 838.446 667.626 837.47C667.667 836.495 668.029 835.573 668.632 834.908Z" fill="white"/>
<path d="M779.371 1129.81C778.056 1131.26 777.954 1133.7 779.141 1135.25C780.329 1136.81 782.358 1136.89 783.672 1135.45C784.987 1134 785.09 1131.56 783.902 1130.01C782.714 1128.45 780.686 1128.36 779.371 1129.81Z" fill="white"/>
<path d="M834.44 1063.1C832.36 1065.4 832.198 1069.25 834.077 1071.71C835.957 1074.17 839.167 1074.31 841.247 1072.02C843.327 1069.73 843.49 1065.87 841.61 1063.41C839.731 1060.95 836.521 1060.81 834.44 1063.1Z" fill="white"/>
</g>
</g>
</svg>
