<svg width="94" height="95" viewBox="0 0 94 95" fill="none" xmlns="http://www.w3.org/2000/svg">
<rect width="94" height="95" rx="47" fill="url(#paint0_linear_857_614)" fill-opacity="0.05"/>
<g filter="url(#filter0_d_857_614)">
<rect x="12" y="12" width="70" height="71" rx="35" fill="url(#paint1_linear_857_614)" fill-opacity="0.2" shape-rendering="crispEdges"/>
<rect x="12.5" y="12.5" width="69" height="70" rx="34.5" stroke="url(#paint2_linear_857_614)" stroke-opacity="0.2" shape-rendering="crispEdges"/>
<mask id="mask0_857_614" style="mask-type:alpha" maskUnits="userSpaceOnUse" x="27" y="27" width="40" height="41">
<rect x="27" y="27.5" width="40" height="40" fill="#D9D9D9"/>
</mask>
<g mask="url(#mask0_857_614)">
<path d="M44.5833 57.8333L53.2083 47.5H46.5416L47.75 38.0417L40.0416 49.1667H45.8333L44.5833 57.8333ZM41.295 63.2371L42.9616 51.6667H35.2533L48.987 31.8429H51.0383L49.3879 45H58.5541L43.3462 63.2371H41.295Z" fill="#F2F2F2"/>
</g>
</g>
<defs>
<filter id="filter0_d_857_614" x="8" y="12" width="78" height="79" filterUnits="userSpaceOnUse" color-interpolation-filters="sRGB">
<feFlood flood-opacity="0" result="BackgroundImageFix"/>
<feColorMatrix in="SourceAlpha" type="matrix" values="0 0 0 0 0 0 0 0 0 0 0 0 0 0 0 0 0 0 127 0" result="hardAlpha"/>
<feOffset dy="4"/>
<feGaussianBlur stdDeviation="2"/>
<feComposite in2="hardAlpha" operator="out"/>
<feColorMatrix type="matrix" values="0 0 0 0 0 0 0 0 0 0 0 0 0 0 0 0 0 0 0.25 0"/>
<feBlend mode="normal" in2="BackgroundImageFix" result="effect1_dropShadow_857_614"/>
<feBlend mode="normal" in="SourceGraphic" in2="effect1_dropShadow_857_614" result="shape"/>
</filter>
<linearGradient id="paint0_linear_857_614" x1="47" y1="0" x2="47" y2="95" gradientUnits="userSpaceOnUse">
<stop stop-color="#00CCCC"/>
<stop offset="1.0001" stop-color="#32527B"/>
</linearGradient>
<linearGradient id="paint1_linear_857_614" x1="47" y1="-35.0135" x2="47" y2="195.257" gradientUnits="userSpaceOnUse">
<stop stop-color="#999999"/>
<stop offset="0.0001" stop-color="#898E94"/>
<stop offset="1" stop-color="white"/>
</linearGradient>
<linearGradient id="paint2_linear_857_614" x1="47" y1="-111.291" x2="47" y2="147.284" gradientUnits="userSpaceOnUse">
<stop stop-color="#477CA8"/>
<stop offset="0.716291" stop-color="#32527B" stop-opacity="0.6"/>
</linearGradient>
</defs>
</svg>
