<svg width="94" height="95" viewBox="0 0 94 95" fill="none" xmlns="http://www.w3.org/2000/svg">
<rect width="94" height="95" rx="47" fill="url(#paint0_linear_857_609)" fill-opacity="0.05"/>
<g filter="url(#filter0_d_857_609)">
<rect x="12" y="12" width="70" height="71" rx="35" fill="url(#paint1_linear_857_609)" fill-opacity="0.2" shape-rendering="crispEdges"/>
<rect x="12.5" y="12.5" width="69" height="70" rx="34.5" stroke="url(#paint2_linear_857_609)" stroke-opacity="0.2" shape-rendering="crispEdges"/>
<mask id="mask0_857_609" style="mask-type:alpha" maskUnits="userSpaceOnUse" x="30" y="30" width="34" height="35">
<rect x="30" y="30.5" width="34" height="34" fill="#F2F2F2"/>
</mask>
<g mask="url(#mask0_857_609)">
<path d="M44.8477 62.375C44.8477 61.7684 45.0843 61.2626 45.5575 60.8574C46.0306 60.4525 46.6295 60.25 47.3542 60.25V52.3928C46.9981 52.284 46.6781 52.1278 46.394 51.9242C46.1097 51.721 45.8658 51.4794 45.6623 51.1996L42.246 53.3466C42.0064 53.4899 41.7417 53.582 41.452 53.6228C41.1623 53.6637 40.8621 53.6388 40.5513 53.5481L34.1763 51.7418C33.6371 51.5893 33.199 51.2878 32.862 50.8373C32.5251 50.3866 32.3566 49.8762 32.3566 49.3062C32.3566 48.5998 32.5991 48.0041 33.0841 47.5191C33.5691 47.0341 34.1648 46.7917 34.8712 46.7917H45.5178C45.736 46.4684 46.0003 46.1897 46.3108 45.9555C46.6213 45.721 46.9691 45.5494 47.3542 45.4405V40.5473C47.3542 40.255 47.4105 39.9749 47.5231 39.7069C47.6357 39.4392 47.802 39.2072 48.0218 39.011L52.8739 34.4776C53.2974 34.0652 53.7902 33.8308 54.3521 33.7746C54.9139 33.7184 55.4342 33.8379 55.9133 34.133C56.5029 34.5018 56.8851 35.0229 57.0601 35.6963C57.2351 36.3695 57.1409 37.0021 56.7775 37.5943L51.2419 46.7453C51.5342 47.0196 51.7511 47.3834 51.8928 47.8365C52.0345 48.2896 52.0718 48.734 52.0047 49.1699L56.1021 50.1725C56.389 50.2488 56.6473 50.371 56.877 50.5391C57.1067 50.707 57.2889 50.9153 57.4235 51.1642L60.6464 56.9863C60.9278 57.4876 61.031 58.0143 60.9559 58.5663C60.8809 59.1186 60.6368 59.5971 60.2239 60.0021C59.7318 60.4941 59.1407 60.7379 58.4506 60.7334C57.7604 60.7289 57.1647 60.4806 56.6634 59.9883L49.7653 53.0902C49.7198 53.1175 49.6743 53.1403 49.629 53.1585C49.5836 53.1767 49.5337 53.1903 49.4792 53.1992V60.25C50.2038 60.25 50.8027 60.4525 51.2759 60.8574C51.749 61.2626 51.9856 61.7684 51.9856 62.375H44.8477ZM36.375 37.5833V35.4583H44.1667V37.5833H36.375ZM49.4792 40.5473V45.4405C49.4936 45.4405 49.5044 45.4441 49.5117 45.4511C49.5191 45.4585 49.53 45.4621 49.5447 45.4621L54.9688 36.4758C55.016 36.3812 55.0278 36.2806 55.0042 36.1741C54.9806 36.0674 54.9215 35.9904 54.8271 35.9432C54.7562 35.896 54.6677 35.8842 54.5615 35.9078C54.4552 35.9314 54.3785 35.9668 54.3312 36.014L49.4792 40.5473ZM32.125 43.25V41.125H38.5V43.25H32.125ZM48.4142 50.4697C48.8536 50.4697 49.2226 50.3211 49.5213 50.0238C49.8202 49.7265 49.9697 49.3583 49.9697 48.9191C49.9697 48.4797 49.8211 48.1107 49.5238 47.812C49.2265 47.5131 48.8583 47.3636 48.4191 47.3636C47.9797 47.3636 47.6107 47.5123 47.312 47.8095C47.0131 48.1068 46.8636 48.475 46.8636 48.9142C46.8636 49.3536 47.0123 49.7226 47.3095 50.0213C47.6068 50.3202 47.975 50.4697 48.4142 50.4697ZM41.1481 51.5375L44.796 49.3091C44.7816 49.2364 44.7744 49.171 44.7744 49.1129V48.9167H34.8747C34.7543 48.9167 34.6587 48.9521 34.5879 49.0229C34.517 49.0937 34.4816 49.1882 34.4816 49.3062C34.4816 49.4007 34.5052 49.4833 34.5525 49.5542C34.5997 49.625 34.6705 49.6722 34.765 49.6958L41.1481 51.5375ZM55.5924 52.2186L51.2553 51.1886C51.2263 51.2177 51.1972 51.254 51.1682 51.2977C51.1391 51.3414 51.1101 51.3778 51.0811 51.4068L58.1485 58.4788C58.2209 58.5518 58.3162 58.5882 58.4343 58.5882C58.5523 58.5882 58.6468 58.5531 58.7176 58.4827C58.7884 58.4121 58.8298 58.3358 58.8416 58.2539C58.8534 58.1717 58.8357 58.0837 58.7884 57.9897L55.5924 52.2186ZM34.9583 59.5417V57.4167H41.3333V59.5417H34.9583Z" fill="#F2F2F2"/>
</g>
</g>
<defs>
<filter id="filter0_d_857_609" x="8" y="12" width="78" height="79" filterUnits="userSpaceOnUse" color-interpolation-filters="sRGB">
<feFlood flood-opacity="0" result="BackgroundImageFix"/>
<feColorMatrix in="SourceAlpha" type="matrix" values="0 0 0 0 0 0 0 0 0 0 0 0 0 0 0 0 0 0 127 0" result="hardAlpha"/>
<feOffset dy="4"/>
<feGaussianBlur stdDeviation="2"/>
<feComposite in2="hardAlpha" operator="out"/>
<feColorMatrix type="matrix" values="0 0 0 0 0 0 0 0 0 0 0 0 0 0 0 0 0 0 0.25 0"/>
<feBlend mode="normal" in2="BackgroundImageFix" result="effect1_dropShadow_857_609"/>
<feBlend mode="normal" in="SourceGraphic" in2="effect1_dropShadow_857_609" result="shape"/>
</filter>
<linearGradient id="paint0_linear_857_609" x1="47" y1="0" x2="47" y2="95" gradientUnits="userSpaceOnUse">
<stop stop-color="#00CCCC"/>
<stop offset="1.0001" stop-color="#32527B"/>
</linearGradient>
<linearGradient id="paint1_linear_857_609" x1="47" y1="-35.0135" x2="47" y2="195.257" gradientUnits="userSpaceOnUse">
<stop stop-color="#999999"/>
<stop offset="0.0001" stop-color="#898E94"/>
<stop offset="1" stop-color="white"/>
</linearGradient>
<linearGradient id="paint2_linear_857_609" x1="47" y1="-111.291" x2="47" y2="147.284" gradientUnits="userSpaceOnUse">
<stop stop-color="#477CA8"/>
<stop offset="0.716291" stop-color="#32527B" stop-opacity="0.6"/>
</linearGradient>
</defs>
</svg>
