<svg width="94" height="95" viewBox="0 0 94 95" fill="none" xmlns="http://www.w3.org/2000/svg">
<rect width="94" height="95" rx="47" fill="url(#paint0_linear_353_485)" fill-opacity="0.05"/>
<g filter="url(#filter0_d_353_485)">
<rect x="12" y="12" width="70" height="71" rx="35" fill="url(#paint1_linear_353_485)" fill-opacity="0.2" shape-rendering="crispEdges"/>
<rect x="12.5" y="12.5" width="69" height="70" rx="34.5" stroke="url(#paint2_linear_353_485)" stroke-opacity="0.2" shape-rendering="crispEdges"/>
<path d="M40.9063 37.9615V33.1923C40.9063 32.8761 41.0347 32.5728 41.2632 32.3492C41.4918 32.1256 41.8018 32 42.125 32C42.4482 32 42.7582 32.1256 42.9868 32.3492C43.2153 32.5728 43.3438 32.8761 43.3438 33.1923V37.9615C43.3438 38.2778 43.2153 38.581 42.9868 38.8046C42.7582 39.0282 42.4482 39.1538 42.125 39.1538C41.8018 39.1538 41.4918 39.0282 41.2632 38.8046C41.0347 38.581 40.9063 38.2778 40.9063 37.9615ZM47 39.1538C47.3232 39.1538 47.6332 39.0282 47.8618 38.8046C48.0903 38.581 48.2188 38.2778 48.2188 37.9615V33.1923C48.2188 32.8761 48.0903 32.5728 47.8618 32.3492C47.6332 32.1256 47.3232 32 47 32C46.6768 32 46.3668 32.1256 46.1382 32.3492C45.9097 32.5728 45.7813 32.8761 45.7813 33.1923V37.9615C45.7813 38.2778 45.9097 38.581 46.1382 38.8046C46.3668 39.0282 46.6768 39.1538 47 39.1538ZM51.875 39.1538C52.1982 39.1538 52.5082 39.0282 52.7368 38.8046C52.9653 38.581 53.0938 38.2778 53.0938 37.9615V33.1923C53.0938 32.8761 52.9653 32.5728 52.7368 32.3492C52.5082 32.1256 52.1982 32 51.875 32C51.5518 32 51.2418 32.1256 51.0132 32.3492C50.7847 32.5728 50.6562 32.8761 50.6562 33.1923V37.9615C50.6562 38.2778 50.7847 38.581 51.0132 38.8046C51.2418 39.0282 51.5518 39.1538 51.875 39.1538ZM66.0125 46.0692L61.625 49.2885V58.2308C61.625 59.4956 61.1114 60.7087 60.1971 61.6031C59.2829 62.4975 58.0429 63 56.75 63H37.25C35.9571 63 34.7171 62.4975 33.8029 61.6031C32.8886 60.7087 32.375 59.4956 32.375 58.2308V49.2885L27.9875 46.0692C27.7289 45.8795 27.558 45.597 27.5123 45.284C27.4665 44.971 27.5498 44.653 27.7438 44.4C27.9377 44.147 28.2264 43.9798 28.5464 43.9351C28.8664 43.8903 29.1914 43.9718 29.45 44.1615L32.375 46.3077V42.7308C32.375 42.4145 32.5034 42.1113 32.732 41.8877C32.9605 41.6641 33.2705 41.5385 33.5938 41.5385H60.4062C60.7295 41.5385 61.0395 41.6641 61.268 41.8877C61.4966 42.1113 61.625 42.4145 61.625 42.7308V46.3077L64.55 44.1615C64.8086 43.9718 65.1336 43.8903 65.4536 43.9351C65.7736 43.9798 66.0623 44.147 66.2562 44.4C66.4502 44.653 66.5335 44.971 66.4877 45.284C66.442 45.597 66.2711 45.8795 66.0125 46.0692ZM59.1875 43.9231H34.8125V58.2308C34.8125 58.8632 35.0693 59.4697 35.5264 59.9169C35.9836 60.3641 36.6035 60.6154 37.25 60.6154H56.75C57.3965 60.6154 58.0165 60.3641 58.4736 59.9169C58.9307 59.4697 59.1875 58.8632 59.1875 58.2308V43.9231Z" fill="#F2F2F2"/>
</g>
<defs>
<filter id="filter0_d_353_485" x="8" y="12" width="78" height="79" filterUnits="userSpaceOnUse" color-interpolation-filters="sRGB">
<feFlood flood-opacity="0" result="BackgroundImageFix"/>
<feColorMatrix in="SourceAlpha" type="matrix" values="0 0 0 0 0 0 0 0 0 0 0 0 0 0 0 0 0 0 127 0" result="hardAlpha"/>
<feOffset dy="4"/>
<feGaussianBlur stdDeviation="2"/>
<feComposite in2="hardAlpha" operator="out"/>
<feColorMatrix type="matrix" values="0 0 0 0 0 0 0 0 0 0 0 0 0 0 0 0 0 0 0.25 0"/>
<feBlend mode="normal" in2="BackgroundImageFix" result="effect1_dropShadow_353_485"/>
<feBlend mode="normal" in="SourceGraphic" in2="effect1_dropShadow_353_485" result="shape"/>
</filter>
<linearGradient id="paint0_linear_353_485" x1="47" y1="0" x2="47" y2="95" gradientUnits="userSpaceOnUse">
<stop stop-color="#00CCCC"/>
<stop offset="1.0001" stop-color="#32527B"/>
</linearGradient>
<linearGradient id="paint1_linear_353_485" x1="47" y1="-35.0135" x2="47" y2="195.257" gradientUnits="userSpaceOnUse">
<stop stop-color="#999999"/>
<stop offset="0.0001" stop-color="#898E94"/>
<stop offset="1" stop-color="white"/>
</linearGradient>
<linearGradient id="paint2_linear_353_485" x1="47" y1="-111.291" x2="47" y2="147.284" gradientUnits="userSpaceOnUse">
<stop stop-color="#477CA8"/>
<stop offset="0.716291" stop-color="#32527B" stop-opacity="0.6"/>
</linearGradient>
</defs>
</svg>
