<svg width="94" height="96" viewBox="0 0 94 96" fill="none" xmlns="http://www.w3.org/2000/svg">
<rect width="94" height="95.125" rx="47" fill="url(#paint0_linear_353_520)" fill-opacity="0.05"/>
<g filter="url(#filter0_d_353_520)">
<rect x="12" y="12" width="70" height="71.125" rx="35" fill="url(#paint1_linear_353_520)" fill-opacity="0.2" shape-rendering="crispEdges"/>
<rect x="12.5" y="12.5" width="69" height="70.125" rx="34.5" stroke="url(#paint2_linear_353_520)" stroke-opacity="0.2" shape-rendering="crispEdges"/>
<rect x="38.22" y="50.675" width="12.45" height="2.49" rx="1.245" fill="#F2F2F2"/>
<path fill-rule="evenodd" clip-rule="evenodd" d="M51.9152 43.3482L61.5157 59.3542H61.5203C61.747 59.732 61.8693 60.1633 61.8748 60.6038C61.8803 61.0444 61.7689 61.4785 61.5518 61.8619C61.3347 62.2453 61.0197 62.5642 60.6391 62.7861C60.2585 63.008 59.8258 63.125 59.3852 63.125H34.4852C34.045 63.1241 33.6129 63.0066 33.2329 62.7844C32.8529 62.5621 32.5386 62.2431 32.3221 61.8599C32.1056 61.4766 31.9945 61.0428 32.0002 60.6026C32.0059 60.1625 32.1282 59.7317 32.3547 59.3542L41.9552 43.3482V34.49H40.7102C40.38 34.49 40.0633 34.3588 39.8298 34.1253C39.5963 33.8919 39.4652 33.5752 39.4652 33.245C39.4652 32.9148 39.5963 32.5981 39.8298 32.3647C40.0633 32.1312 40.38 32 40.7102 32H53.1602C53.4904 32 53.807 32.1312 54.0405 32.3647C54.274 32.5981 54.4052 32.9148 54.4052 33.245C54.4052 33.5752 54.274 33.8919 54.0405 34.1253C53.807 34.3588 53.4904 34.49 53.1602 34.49H51.9152V43.3482ZM44.4452 43.6937C44.4456 43.9191 44.3842 44.1403 44.2678 44.3333L40.4596 50.6875C40.7327 50.6969 41.0185 50.7037 41.3145 50.7107C43.062 50.7523 45.1629 50.8022 47.071 51.4552C46.9506 51.7425 47.7409 52.3544 48.2033 52.7124C48.6444 53.0538 48.7872 53.1644 47.5576 52.5425C45.5956 51.5486 43.1341 52.2022 41.0817 52.7472C40.2837 52.9591 39.5476 53.1546 38.9267 53.2304L34.4852 60.635H59.3852L56.8812 56.4829L49.6026 44.3333C49.4861 44.1403 49.4248 43.9191 49.4252 43.6937V34.49H44.4452V43.6937ZM56.832 56.4919C56.8498 56.4902 56.8662 56.4872 56.8812 56.4829C56.8649 56.4861 56.8485 56.4891 56.832 56.4918C56.832 56.4918 56.832 56.4918 56.832 56.4919ZM49.229 52.4907C48.8824 52.2902 48.5324 52.0983 48.1801 51.92C47.8209 51.7382 47.4497 51.5848 47.071 51.4552C47.1119 51.3576 47.2579 51.2975 47.5576 51.2975C47.8245 51.2987 48.5136 51.6672 49.4053 52.2074L49.229 52.4907Z" fill="#F2F2F2"/>
</g>
<defs>
<filter id="filter0_d_353_520" x="8" y="12" width="78" height="79.125" filterUnits="userSpaceOnUse" color-interpolation-filters="sRGB">
<feFlood flood-opacity="0" result="BackgroundImageFix"/>
<feColorMatrix in="SourceAlpha" type="matrix" values="0 0 0 0 0 0 0 0 0 0 0 0 0 0 0 0 0 0 127 0" result="hardAlpha"/>
<feOffset dy="4"/>
<feGaussianBlur stdDeviation="2"/>
<feComposite in2="hardAlpha" operator="out"/>
<feColorMatrix type="matrix" values="0 0 0 0 0 0 0 0 0 0 0 0 0 0 0 0 0 0 0.25 0"/>
<feBlend mode="normal" in2="BackgroundImageFix" result="effect1_dropShadow_353_520"/>
<feBlend mode="normal" in="SourceGraphic" in2="effect1_dropShadow_353_520" result="shape"/>
</filter>
<linearGradient id="paint0_linear_353_520" x1="47" y1="0" x2="47" y2="95.125" gradientUnits="userSpaceOnUse">
<stop stop-color="#00CCCC"/>
<stop offset="1.0001" stop-color="#32527B"/>
</linearGradient>
<linearGradient id="paint1_linear_353_520" x1="47" y1="-35.0963" x2="47" y2="195.579" gradientUnits="userSpaceOnUse">
<stop stop-color="#999999"/>
<stop offset="0.0001" stop-color="#898E94"/>
<stop offset="1" stop-color="white"/>
</linearGradient>
<linearGradient id="paint2_linear_353_520" x1="47" y1="-111.508" x2="47" y2="147.522" gradientUnits="userSpaceOnUse">
<stop stop-color="#477CA8"/>
<stop offset="0.716291" stop-color="#32527B" stop-opacity="0.6"/>
</linearGradient>
</defs>
</svg>
