<svg width="94" height="95" viewBox="0 0 94 95" fill="none" xmlns="http://www.w3.org/2000/svg">
<rect width="94" height="95" rx="47" fill="url(#paint0_linear_353_506)" fill-opacity="0.05"/>
<g filter="url(#filter0_d_353_506)">
<rect x="12" y="12" width="70" height="71" rx="35" fill="url(#paint1_linear_353_506)" fill-opacity="0.2" shape-rendering="crispEdges"/>
<rect x="12.5" y="12.5" width="69" height="70" rx="34.5" stroke="url(#paint2_linear_353_506)" stroke-opacity="0.2" shape-rendering="crispEdges"/>
<path d="M64.3437 38.0805L61.1492 34.9611C60.9012 34.7188 60.5649 34.5826 60.2143 34.5826C59.8636 34.5826 59.5273 34.7188 59.2794 34.9611C59.0314 35.2035 58.8921 35.5322 58.8921 35.875C58.8921 36.2178 59.0314 36.5465 59.2794 36.7889L62.4706 39.9115C62.7171 40.1527 62.8561 40.4795 62.8571 40.8205V53.9583C62.8571 54.3009 62.7179 54.6294 62.4701 54.8717C62.2223 55.1139 61.8862 55.25 61.5357 55.25C61.1852 55.25 60.8491 55.1139 60.6013 54.8717C60.3535 54.6294 60.2143 54.3009 60.2143 53.9583V47.5C60.2143 46.4723 59.7966 45.4867 59.0532 44.76C58.3097 44.0333 57.3014 43.625 56.25 43.625H53.6071V35.875C53.6071 34.8473 53.1895 33.8617 52.446 33.135C51.7026 32.4083 50.6942 32 49.6428 32H36.4286C35.3772 32 34.3688 32.4083 33.6254 33.135C32.8819 33.8617 32.4643 34.8473 32.4643 35.875V60.4167H29.8214C29.471 60.4167 29.1349 60.5528 28.887 60.795C28.6392 61.0372 28.5 61.3658 28.5 61.7083C28.5 62.0509 28.6392 62.3794 28.887 62.6217C29.1349 62.8639 29.471 63 29.8214 63H56.25C56.6004 63 56.9366 62.8639 57.1844 62.6217C57.4322 62.3794 57.5714 62.0509 57.5714 61.7083C57.5714 61.3658 57.4322 61.0372 57.1844 60.795C56.9366 60.5528 56.6004 60.4167 56.25 60.4167H53.6071V46.2083H56.25C56.6004 46.2083 56.9366 46.3444 57.1844 46.5867C57.4322 46.8289 57.5714 47.1574 57.5714 47.5V53.9583C57.5714 54.986 57.9891 55.9717 58.7325 56.6984C59.476 57.4251 60.4843 57.8333 61.5357 57.8333C62.5871 57.8333 63.5954 57.4251 64.3389 56.6984C65.0823 55.9717 65.5 54.986 65.5 53.9583V40.8205C65.502 40.3117 65.4008 39.8077 65.2023 39.3374C65.0039 38.8671 64.7121 38.4399 64.3437 38.0805ZM35.1071 60.4167V35.875C35.1071 35.5324 35.2464 35.2039 35.4942 34.9617C35.742 34.7194 36.0781 34.5833 36.4286 34.5833H49.6428C49.9933 34.5833 50.3294 34.7194 50.5772 34.9617C50.825 35.2039 50.9643 35.5324 50.9643 35.875V60.4167H35.1071ZM48.3214 44.9167C48.3214 45.2592 48.1822 45.5878 47.9344 45.83C47.6866 46.0722 47.3505 46.2083 47 46.2083H39.0714C38.721 46.2083 38.3848 46.0722 38.137 45.83C37.8892 45.5878 37.75 45.2592 37.75 44.9167C37.75 44.5741 37.8892 44.2456 38.137 44.0033C38.3848 43.7611 38.721 43.625 39.0714 43.625H47C47.3505 43.625 47.6866 43.7611 47.9344 44.0033C48.1822 44.2456 48.3214 44.5741 48.3214 44.9167Z" fill="#F2F2F2"/>
</g>
<defs>
<filter id="filter0_d_353_506" x="8" y="12" width="78" height="79" filterUnits="userSpaceOnUse" color-interpolation-filters="sRGB">
<feFlood flood-opacity="0" result="BackgroundImageFix"/>
<feColorMatrix in="SourceAlpha" type="matrix" values="0 0 0 0 0 0 0 0 0 0 0 0 0 0 0 0 0 0 127 0" result="hardAlpha"/>
<feOffset dy="4"/>
<feGaussianBlur stdDeviation="2"/>
<feComposite in2="hardAlpha" operator="out"/>
<feColorMatrix type="matrix" values="0 0 0 0 0 0 0 0 0 0 0 0 0 0 0 0 0 0 0.25 0"/>
<feBlend mode="normal" in2="BackgroundImageFix" result="effect1_dropShadow_353_506"/>
<feBlend mode="normal" in="SourceGraphic" in2="effect1_dropShadow_353_506" result="shape"/>
</filter>
<linearGradient id="paint0_linear_353_506" x1="47" y1="0" x2="47" y2="95" gradientUnits="userSpaceOnUse">
<stop stop-color="#00CCCC"/>
<stop offset="1.0001" stop-color="#32527B"/>
</linearGradient>
<linearGradient id="paint1_linear_353_506" x1="47" y1="-35.0135" x2="47" y2="195.257" gradientUnits="userSpaceOnUse">
<stop stop-color="#999999"/>
<stop offset="0.0001" stop-color="#898E94"/>
<stop offset="1" stop-color="white"/>
</linearGradient>
<linearGradient id="paint2_linear_353_506" x1="47" y1="-111.291" x2="47" y2="147.284" gradientUnits="userSpaceOnUse">
<stop stop-color="#477CA8"/>
<stop offset="0.716291" stop-color="#32527B" stop-opacity="0.6"/>
</linearGradient>
</defs>
</svg>
