<svg width="94" height="95" viewBox="0 0 94 95" fill="none" xmlns="http://www.w3.org/2000/svg">
<rect width="94" height="95" rx="47" fill="url(#paint0_linear_353_531)" fill-opacity="0.05"/>
<g filter="url(#filter0_d_353_531)">
<rect x="12" y="12" width="70" height="71" rx="35" fill="url(#paint1_linear_353_531)" fill-opacity="0.2" shape-rendering="crispEdges"/>
<rect x="12.5" y="12.5" width="69" height="70" rx="34.5" stroke="url(#paint2_linear_353_531)" stroke-opacity="0.2" shape-rendering="crispEdges"/>
<path d="M46.1496 59.7726C46.0609 60.5705 45.8114 61.2622 45.2856 61.8286C44.3493 62.8375 43.1945 63.2207 41.855 62.8764C40.4403 62.51 39.5948 61.5619 39.3268 60.1389C39.2714 59.8459 39.1791 59.7389 38.8793 59.7074C37.4402 59.5608 36.2949 58.272 36.1251 56.712C35.7744 53.48 35.4015 50.2502 35.0367 47.0197C35.0301 46.9596 35.016 46.901 34.9983 46.8043C34.4342 46.8043 33.8715 46.8043 33.3088 46.8043C32.4058 46.7984 32.0041 46.4013 32.0026 45.5125C32.0026 44.4281 31.9967 43.3437 32.0026 42.2593C32.0152 40.3095 33.3871 38.9276 35.352 38.8829C35.795 38.8727 36.2381 38.8653 36.6811 38.8873C36.9484 38.9005 37.1411 38.8097 37.3383 38.6411C39.3873 36.8951 41.4091 35.1161 43.5054 33.4271C45.8631 31.5287 49.3291 31.5221 51.6949 33.4206C53.8134 35.1204 55.8477 36.9237 57.9284 38.6704C58.0873 38.7919 58.2797 38.8625 58.48 38.8727C59.3336 38.9159 60.1953 38.8038 61.0334 39.0837C62.141 39.45 63.1098 40.5821 63.1585 41.7369C63.2146 43.0872 63.1976 44.4406 63.1851 45.7924C63.1799 46.35 62.7701 46.753 62.2038 46.786C61.6529 46.8175 61.0962 46.8131 60.5468 46.7992C60.2743 46.7926 60.1776 46.8614 60.1429 47.1553C59.7951 50.3631 59.4141 53.5672 59.0722 56.7758C58.9024 58.3702 57.6597 59.6011 56.1925 59.7235C55.9599 59.7433 55.9252 59.8832 55.8971 60.062C55.6291 61.674 54.5082 62.754 52.8955 62.9672C51.1182 63.2024 49.3852 61.9165 49.1253 60.1433C49.0825 59.8503 48.9953 59.7587 48.697 59.766C47.8597 59.7858 47.026 59.7726 46.1496 59.7726ZM37.2415 46.8248C37.2415 46.9538 37.2334 47.0395 37.2415 47.1223C37.5893 50.2437 37.9334 53.3657 38.296 56.4856C38.33 56.749 38.4317 56.9994 38.5913 57.2125C38.6852 57.3328 38.8048 57.431 38.9416 57.5C39.0783 57.5689 39.2287 57.607 39.382 57.6113C39.5354 57.6157 39.6877 57.5862 39.8282 57.5251C39.9687 57.464 40.0937 57.3727 40.1944 57.2579C41.542 55.7815 43.9728 55.8145 45.2783 57.3371C45.3466 57.427 45.4363 57.4988 45.5394 57.5461C45.6424 57.5934 45.7556 57.6147 45.869 57.6082C47.0504 57.5942 48.2259 57.6082 49.4044 57.5928C49.5781 57.5832 49.7419 57.5095 49.8637 57.3861C51.3176 55.7603 53.6679 55.7581 55.1314 57.3861C55.2052 57.4711 55.3094 57.5693 55.4135 57.5898C56.2257 57.7474 56.8268 57.2748 56.9176 56.4541C57.1982 53.9131 57.4891 51.3735 57.7741 48.8339C57.848 48.1745 57.9152 47.5092 57.9875 46.8226L37.2415 46.8248ZM34.2141 44.6186H61.0327V42.471C61.0327 41.4064 60.6745 41.0518 59.5972 41.0518H35.6163C35.4439 41.0468 35.2713 41.0521 35.0995 41.0679C34.6697 41.1199 34.2407 41.4657 34.223 41.8849C34.1861 42.7927 34.2141 43.7049 34.2141 44.6186ZM54.7821 38.869C54.6345 38.7357 54.5459 38.6543 54.455 38.5759C53.2244 37.5291 51.9937 36.4821 50.7631 35.4348C48.8115 33.7686 46.4324 33.7532 44.4786 35.404C43.2351 36.4547 41.9951 37.5096 40.7585 38.5686C40.664 38.6499 40.5776 38.7401 40.4425 38.8675L54.7821 38.869ZM43.9661 59.6004C43.9661 59.2689 43.8357 58.9505 43.6029 58.7129C43.37 58.4752 43.0529 58.337 42.719 58.3277C42.0278 58.3211 41.4312 58.9197 41.4393 59.6114C41.4408 59.9439 41.5753 60.2622 41.8133 60.4963C42.0513 60.7303 42.3732 60.861 42.7083 60.8596C43.0433 60.8581 43.3641 60.7246 43.6 60.4885C43.8359 60.2524 43.9676 59.9329 43.9661 59.6004ZM53.7595 59.6004C53.762 59.2687 53.6317 58.9496 53.3971 58.7132C53.1625 58.4769 52.8429 58.3427 52.5086 58.3401C52.1743 58.3376 51.8527 58.467 51.6145 58.6997C51.3764 58.9325 51.2411 59.2496 51.2386 59.5814C51.2373 59.7456 51.2687 59.9085 51.3309 60.0607C51.393 60.2129 51.4848 60.3515 51.601 60.4686C51.8355 60.7049 52.1551 60.8391 52.4894 60.8416C52.8237 60.8441 53.1453 60.7148 53.3835 60.482C53.6217 60.2492 53.7569 59.9321 53.7595 59.6004Z" fill="#F2F2F2"/>
<path fill-rule="evenodd" clip-rule="evenodd" d="M52.8025 51.6003C53.0658 51.3662 53.2137 51.0488 53.2137 50.7179C53.2137 50.3869 53.0658 50.0695 52.8025 49.8355C52.5392 49.6015 52.1821 49.47 51.8098 49.47H43.3868C43.0144 49.47 42.6574 49.6015 42.3941 49.8355C42.1308 50.0695 41.9829 50.3869 41.9829 50.7179C41.9829 51.0488 42.1308 51.3662 42.3941 51.6003C42.6574 51.8343 43.0144 51.9658 43.3868 51.9658H51.8098C52.1821 51.9658 52.5392 51.8343 52.8025 51.6003Z" fill="#F2F2F2"/>
</g>
<defs>
<filter id="filter0_d_353_531" x="8" y="12" width="78" height="79" filterUnits="userSpaceOnUse" color-interpolation-filters="sRGB">
<feFlood flood-opacity="0" result="BackgroundImageFix"/>
<feColorMatrix in="SourceAlpha" type="matrix" values="0 0 0 0 0 0 0 0 0 0 0 0 0 0 0 0 0 0 127 0" result="hardAlpha"/>
<feOffset dy="4"/>
<feGaussianBlur stdDeviation="2"/>
<feComposite in2="hardAlpha" operator="out"/>
<feColorMatrix type="matrix" values="0 0 0 0 0 0 0 0 0 0 0 0 0 0 0 0 0 0 0.25 0"/>
<feBlend mode="normal" in2="BackgroundImageFix" result="effect1_dropShadow_353_531"/>
<feBlend mode="normal" in="SourceGraphic" in2="effect1_dropShadow_353_531" result="shape"/>
</filter>
<linearGradient id="paint0_linear_353_531" x1="47" y1="0" x2="47" y2="95" gradientUnits="userSpaceOnUse">
<stop stop-color="#00CCCC"/>
<stop offset="1.0001" stop-color="#32527B"/>
</linearGradient>
<linearGradient id="paint1_linear_353_531" x1="47" y1="-35.0135" x2="47" y2="195.257" gradientUnits="userSpaceOnUse">
<stop stop-color="#999999"/>
<stop offset="0.0001" stop-color="#898E94"/>
<stop offset="1" stop-color="white"/>
</linearGradient>
<linearGradient id="paint2_linear_353_531" x1="47" y1="-111.291" x2="47" y2="147.284" gradientUnits="userSpaceOnUse">
<stop stop-color="#477CA8"/>
<stop offset="0.716291" stop-color="#32527B" stop-opacity="0.6"/>
</linearGradient>
</defs>
</svg>
