<svg width="70" height="70" viewBox="0 0 70 70" fill="none" xmlns="http://www.w3.org/2000/svg">
<path d="M35 0C15.67 0 0 15.67 0 35C0 54.33 15.67 70 35 70C54.33 70 70 54.33 70 35C70 15.67 54.33 0 35 0ZM35 1.2069C53.6634 1.2069 68.7931 16.3366 68.7931 35C68.7931 53.6634 53.6634 68.7931 35 68.7931C16.3366 68.7931 1.2069 53.6634 1.2069 35C1.2069 16.3366 16.3366 1.2069 35 1.2069Z" fill="url(#paint0_linear_274_875)"/>
<path fill-rule="evenodd" clip-rule="evenodd" d="M23.3273 35.2041L32.6364 25.362C33.0705 24.9142 33.775 24.8622 34.2819 25.3167C34.7341 25.7216 34.7455 26.5131 34.3273 26.9541L26.8544 34.8422H45.8364C46.4796 34.8422 47 35.3601 47 36.0001C47 36.6401 46.4795 37.158 45.8364 37.158H26.8544L34.3273 45.0462C34.7455 45.4872 34.7159 46.2584 34.2819 46.6835C33.8228 47.1313 33.0636 47.0928 32.6364 46.6383L23.3273 36.7962C23.0545 36.5293 23.0045 36.2715 23 36.0001C23 35.7333 23.1636 35.376 23.3273 35.2041Z" fill="url(#paint1_linear_274_875)"/>
<defs>
<linearGradient id="paint0_linear_274_875" x1="-12.8909" y1="-9.82164" x2="75.5039" y2="75.5039" gradientUnits="userSpaceOnUse">
<stop stop-color="#FFE3C9"/>
<stop offset="0.528659" stop-color="#98C5FF"/>
<stop offset="1" stop-color="#91FFFF"/>
</linearGradient>
<linearGradient id="paint1_linear_274_875" x1="51.4197" y1="21.9132" x2="23.6582" y2="51.1469" gradientUnits="userSpaceOnUse">
<stop stop-color="#FFE3C9"/>
<stop offset="0.528659" stop-color="#98C5FF"/>
<stop offset="1" stop-color="#91FFFF"/>
</linearGradient>
</defs>
</svg>
