<svg width="94" height="95" viewBox="0 0 94 95" fill="none" xmlns="http://www.w3.org/2000/svg">
<rect width="94" height="95" rx="47" fill="url(#paint0_linear_353_499)" fill-opacity="0.05"/>
<g filter="url(#filter0_d_353_499)">
<rect x="12" y="12" width="70" height="71" rx="35" fill="url(#paint1_linear_353_499)" fill-opacity="0.2" shape-rendering="crispEdges"/>
<rect x="12.5" y="12.5" width="69" height="70" rx="34.5" stroke="url(#paint2_linear_353_499)" stroke-opacity="0.2" shape-rendering="crispEdges"/>
<path d="M65.2 60.4167H63.9V41.0417C63.9 40.6991 63.763 40.3706 63.5192 40.1283C63.2754 39.8861 62.9448 39.75 62.6 39.75H52.2C51.8552 39.75 51.5246 39.8861 51.2808 40.1283C51.037 40.3706 50.9 40.6991 50.9 41.0417V47.5H43.1V33.2917C43.1 32.9491 42.963 32.6206 42.7192 32.3783C42.4754 32.1361 42.1448 32 41.8 32H31.4C31.0552 32 30.7246 32.1361 30.4808 32.3783C30.237 32.6206 30.1 32.9491 30.1 33.2917V60.4167H28.8C28.4552 60.4167 28.1246 60.5528 27.8808 60.795C27.637 61.0372 27.5 61.3658 27.5 61.7083C27.5 62.0509 27.637 62.3794 27.8808 62.6217C28.1246 62.8639 28.4552 63 28.8 63H65.2C65.5448 63 65.8754 62.8639 66.1192 62.6217C66.363 62.3794 66.5 62.0509 66.5 61.7083C66.5 61.3658 66.363 61.0372 66.1192 60.795C65.8754 60.5528 65.5448 60.4167 65.2 60.4167ZM53.5 42.3333H61.3V60.4167H53.5V42.3333ZM50.9 50.0833V60.4167H43.1V50.0833H50.9ZM32.7 34.5833H40.5V60.4167H32.7V34.5833ZM37.9 38.4583V41.0417C37.9 41.3842 37.763 41.7128 37.5192 41.955C37.2754 42.1972 36.9448 42.3333 36.6 42.3333C36.2552 42.3333 35.9246 42.1972 35.6808 41.955C35.437 41.7128 35.3 41.3842 35.3 41.0417V38.4583C35.3 38.1158 35.437 37.7872 35.6808 37.545C35.9246 37.3028 36.2552 37.1667 36.6 37.1667C36.9448 37.1667 37.2754 37.3028 37.5192 37.545C37.763 37.7872 37.9 38.1158 37.9 38.4583ZM37.9 46.2083V48.7917C37.9 49.1342 37.763 49.4628 37.5192 49.705C37.2754 49.9472 36.9448 50.0833 36.6 50.0833C36.2552 50.0833 35.9246 49.9472 35.6808 49.705C35.437 49.4628 35.3 49.1342 35.3 48.7917V46.2083C35.3 45.8658 35.437 45.5372 35.6808 45.295C35.9246 45.0528 36.2552 44.9167 36.6 44.9167C36.9448 44.9167 37.2754 45.0528 37.5192 45.295C37.763 45.5372 37.9 45.8658 37.9 46.2083ZM37.9 53.9583V56.5417C37.9 56.8842 37.763 57.2128 37.5192 57.455C37.2754 57.6972 36.9448 57.8333 36.6 57.8333C36.2552 57.8333 35.9246 57.6972 35.6808 57.455C35.437 57.2128 35.3 56.8842 35.3 56.5417V53.9583C35.3 53.6158 35.437 53.2872 35.6808 53.045C35.9246 52.8028 36.2552 52.6667 36.6 52.6667C36.9448 52.6667 37.2754 52.8028 37.5192 53.045C37.763 53.2872 37.9 53.6158 37.9 53.9583ZM45.7 56.5417V53.9583C45.7 53.6158 45.837 53.2872 46.0808 53.045C46.3246 52.8028 46.6552 52.6667 47 52.6667C47.3448 52.6667 47.6754 52.8028 47.9192 53.045C48.163 53.2872 48.3 53.6158 48.3 53.9583V56.5417C48.3 56.8842 48.163 57.2128 47.9192 57.455C47.6754 57.6972 47.3448 57.8333 47 57.8333C46.6552 57.8333 46.3246 57.6972 46.0808 57.455C45.837 57.2128 45.7 56.8842 45.7 56.5417ZM56.1 56.5417V53.9583C56.1 53.6158 56.237 53.2872 56.4808 53.045C56.7246 52.8028 57.0552 52.6667 57.4 52.6667C57.7448 52.6667 58.0754 52.8028 58.3192 53.045C58.563 53.2872 58.7 53.6158 58.7 53.9583V56.5417C58.7 56.8842 58.563 57.2128 58.3192 57.455C58.0754 57.6972 57.7448 57.8333 57.4 57.8333C57.0552 57.8333 56.7246 57.6972 56.4808 57.455C56.237 57.2128 56.1 56.8842 56.1 56.5417ZM56.1 48.7917V46.2083C56.1 45.8658 56.237 45.5372 56.4808 45.295C56.7246 45.0528 57.0552 44.9167 57.4 44.9167C57.7448 44.9167 58.0754 45.0528 58.3192 45.295C58.563 45.5372 58.7 45.8658 58.7 46.2083V48.7917C58.7 49.1342 58.563 49.4628 58.3192 49.705C58.0754 49.9472 57.7448 50.0833 57.4 50.0833C57.0552 50.0833 56.7246 49.9472 56.4808 49.705C56.237 49.4628 56.1 49.1342 56.1 48.7917Z" fill="#F2F2F2"/>
</g>
<defs>
<filter id="filter0_d_353_499" x="8" y="12" width="78" height="79" filterUnits="userSpaceOnUse" color-interpolation-filters="sRGB">
<feFlood flood-opacity="0" result="BackgroundImageFix"/>
<feColorMatrix in="SourceAlpha" type="matrix" values="0 0 0 0 0 0 0 0 0 0 0 0 0 0 0 0 0 0 127 0" result="hardAlpha"/>
<feOffset dy="4"/>
<feGaussianBlur stdDeviation="2"/>
<feComposite in2="hardAlpha" operator="out"/>
<feColorMatrix type="matrix" values="0 0 0 0 0 0 0 0 0 0 0 0 0 0 0 0 0 0 0.25 0"/>
<feBlend mode="normal" in2="BackgroundImageFix" result="effect1_dropShadow_353_499"/>
<feBlend mode="normal" in="SourceGraphic" in2="effect1_dropShadow_353_499" result="shape"/>
</filter>
<linearGradient id="paint0_linear_353_499" x1="47" y1="0" x2="47" y2="95" gradientUnits="userSpaceOnUse">
<stop stop-color="#00CCCC"/>
<stop offset="1.0001" stop-color="#32527B"/>
</linearGradient>
<linearGradient id="paint1_linear_353_499" x1="47" y1="-35.0135" x2="47" y2="195.257" gradientUnits="userSpaceOnUse">
<stop stop-color="#999999"/>
<stop offset="0.0001" stop-color="#898E94"/>
<stop offset="1" stop-color="white"/>
</linearGradient>
<linearGradient id="paint2_linear_353_499" x1="47" y1="-111.291" x2="47" y2="147.284" gradientUnits="userSpaceOnUse">
<stop stop-color="#477CA8"/>
<stop offset="0.716291" stop-color="#32527B" stop-opacity="0.6"/>
</linearGradient>
</defs>
</svg>
