<svg width="94" height="94" viewBox="0 0 94 94" fill="none" xmlns="http://www.w3.org/2000/svg">
<rect width="94" height="94" rx="47" fill="url(#paint0_linear_353_513)" fill-opacity="0.05"/>
<g filter="url(#filter0_d_353_513)">
<rect x="12" y="12" width="70" height="70" rx="35" fill="url(#paint1_linear_353_513)" fill-opacity="0.2" shape-rendering="crispEdges"/>
<rect x="12.5" y="12.5" width="69" height="69" rx="34.5" stroke="url(#paint2_linear_353_513)" stroke-opacity="0.2" shape-rendering="crispEdges"/>
<path d="M41.5312 31.1406C41.5312 30.8505 41.6465 30.5723 41.8516 30.3672C42.0567 30.1621 42.3349 30.0469 42.625 30.0469H51.375C51.6651 30.0469 51.9433 30.1621 52.1484 30.3672C52.3535 30.5723 52.4688 30.8505 52.4688 31.1406C52.4688 31.4307 52.3535 31.7089 52.1484 31.914C51.9433 32.1191 51.6651 32.2344 51.375 32.2344H42.625C42.3349 32.2344 42.0567 32.1191 41.8516 31.914C41.6465 31.7089 41.5312 31.4307 41.5312 31.1406ZM56.8438 37.7031V60.6719C56.8438 61.5421 56.498 62.3767 55.8827 62.9921C55.2673 63.6074 54.4327 63.9531 53.5625 63.9531H40.4375C39.5673 63.9531 38.7327 63.6074 38.1173 62.9921C37.502 62.3767 37.1562 61.5421 37.1562 60.6719V37.7031C37.1562 36.8329 37.502 35.9983 38.1173 35.3829C38.7327 34.7676 39.5673 34.4219 40.4375 34.4219H53.5625C54.4327 34.4219 55.2673 34.7676 55.8827 35.3829C56.498 35.9983 56.8438 36.8329 56.8438 37.7031ZM54.6562 37.7031C54.6562 37.413 54.541 37.1348 54.3359 36.9297C54.1308 36.7246 53.8526 36.6094 53.5625 36.6094H40.4375C40.1474 36.6094 39.8692 36.7246 39.6641 36.9297C39.459 37.1348 39.3438 37.413 39.3438 37.7031V60.6719C39.3438 60.962 39.459 61.2402 39.6641 61.4453C39.8692 61.6504 40.1474 61.7656 40.4375 61.7656H53.5625C53.8526 61.7656 54.1308 61.6504 54.3359 61.4453C54.541 61.2402 54.6562 60.962 54.6562 60.6719V37.7031ZM51.375 45.3594H42.625C42.3349 45.3594 42.0567 45.4746 41.8516 45.6797C41.6465 45.8848 41.5312 46.163 41.5312 46.4531C41.5312 46.7432 41.6465 47.0214 41.8516 47.2265C42.0567 47.4316 42.3349 47.5469 42.625 47.5469H51.375C51.6651 47.5469 51.9433 47.4316 52.1484 47.2265C52.3535 47.0214 52.4688 46.7432 52.4688 46.4531C52.4688 46.163 52.3535 45.8848 52.1484 45.6797C51.9433 45.4746 51.6651 45.3594 51.375 45.3594ZM51.375 50.8281H42.625C42.3349 50.8281 42.0567 50.9434 41.8516 51.1485C41.6465 51.3536 41.5312 51.6318 41.5312 51.9219C41.5312 52.212 41.6465 52.4902 41.8516 52.6953C42.0567 52.9004 42.3349 53.0156 42.625 53.0156H51.375C51.6651 53.0156 51.9433 52.9004 52.1484 52.6953C52.3535 52.4902 52.4688 52.212 52.4688 51.9219C52.4688 51.6318 52.3535 51.3536 52.1484 51.1485C51.9433 50.9434 51.6651 50.8281 51.375 50.8281ZM51.375 56.2969H42.625C42.3349 56.2969 42.0567 56.4121 41.8516 56.6172C41.6465 56.8223 41.5312 57.1005 41.5312 57.3906C41.5312 57.6807 41.6465 57.9589 41.8516 58.164C42.0567 58.3691 42.3349 58.4844 42.625 58.4844H51.375C51.6651 58.4844 51.9433 58.3691 52.1484 58.164C52.3535 57.9589 52.4688 57.6807 52.4688 57.3906C52.4688 57.1005 52.3535 56.8223 52.1484 56.6172C51.9433 56.4121 51.6651 56.2969 51.375 56.2969Z" fill="#F2F2F2"/>
</g>
<defs>
<filter id="filter0_d_353_513" x="8" y="12" width="78" height="78" filterUnits="userSpaceOnUse" color-interpolation-filters="sRGB">
<feFlood flood-opacity="0" result="BackgroundImageFix"/>
<feColorMatrix in="SourceAlpha" type="matrix" values="0 0 0 0 0 0 0 0 0 0 0 0 0 0 0 0 0 0 127 0" result="hardAlpha"/>
<feOffset dy="4"/>
<feGaussianBlur stdDeviation="2"/>
<feComposite in2="hardAlpha" operator="out"/>
<feColorMatrix type="matrix" values="0 0 0 0 0 0 0 0 0 0 0 0 0 0 0 0 0 0 0.25 0"/>
<feBlend mode="normal" in2="BackgroundImageFix" result="effect1_dropShadow_353_513"/>
<feBlend mode="normal" in="SourceGraphic" in2="effect1_dropShadow_353_513" result="shape"/>
</filter>
<linearGradient id="paint0_linear_353_513" x1="47" y1="0" x2="47" y2="94" gradientUnits="userSpaceOnUse">
<stop stop-color="#00CCCC"/>
<stop offset="1.0001" stop-color="#32527B"/>
</linearGradient>
<linearGradient id="paint1_linear_353_513" x1="47" y1="-34.3514" x2="47" y2="192.676" gradientUnits="userSpaceOnUse">
<stop stop-color="#999999"/>
<stop offset="0.0001" stop-color="#898E94"/>
<stop offset="1" stop-color="white"/>
</linearGradient>
<linearGradient id="paint2_linear_353_513" x1="47" y1="-109.554" x2="47" y2="145.378" gradientUnits="userSpaceOnUse">
<stop stop-color="#477CA8"/>
<stop offset="0.716291" stop-color="#32527B" stop-opacity="0.6"/>
</linearGradient>
</defs>
</svg>
