<svg width="94" height="95" viewBox="0 0 94 95" fill="none" xmlns="http://www.w3.org/2000/svg">
<rect width="94" height="95" rx="47" fill="url(#paint0_linear_353_542)" fill-opacity="0.05"/>
<g filter="url(#filter0_d_353_542)">
<rect x="12" y="12" width="70" height="71" rx="35" fill="url(#paint1_linear_353_542)" fill-opacity="0.2" shape-rendering="crispEdges"/>
<rect x="12.5" y="12.5" width="69" height="70" rx="34.5" stroke="url(#paint2_linear_353_542)" stroke-opacity="0.2" shape-rendering="crispEdges"/>
<path d="M61.8077 60.6154H58.818C60.3336 58.7736 61.3186 56.5535 61.667 54.1938C62.0155 51.8341 61.7142 49.4241 60.7955 47.2229C59.8769 45.0216 58.3757 43.1123 56.4532 41.7004C54.5308 40.2884 52.2599 39.427 49.8846 39.209V34.3846C49.8846 33.7522 49.6334 33.1456 49.1862 32.6984C48.739 32.2512 48.1324 32 47.5 32H40.3462C39.7137 32 39.1072 32.2512 38.66 32.6984C38.2128 33.1456 37.9615 33.7522 37.9615 34.3846V49.8846C37.9615 50.5171 38.2128 51.1236 38.66 51.5708C39.1072 52.018 39.7137 52.2692 40.3462 52.2692H47.5C48.1324 52.2692 48.739 52.018 49.1862 51.5708C49.6334 51.1236 49.8846 50.5171 49.8846 49.8846V41.607C51.9882 41.8428 53.975 42.6954 55.5951 44.0576C57.2153 45.4198 58.3964 47.2308 58.9898 49.2626C59.5832 51.2944 59.5625 53.4564 58.9302 55.4765C58.2979 57.4966 57.0823 59.2845 55.4363 60.6154H33.1923C32.8761 60.6154 32.5728 60.741 32.3492 60.9646C32.1256 61.1882 32 61.4915 32 61.8077C32 62.1239 32.1256 62.4272 32.3492 62.6508C32.5728 62.8744 32.8761 63 33.1923 63H61.8077C62.1239 63 62.4272 62.8744 62.6508 62.6508C62.8744 62.4272 63 62.1239 63 61.8077C63 61.4915 62.8744 61.1882 62.6508 60.9646C62.4272 60.741 62.1239 60.6154 61.8077 60.6154ZM47.5 49.8846H40.3462V34.3846H47.5V49.8846ZM39.1538 57.0385C38.8376 57.0385 38.5344 56.9128 38.3108 56.6892C38.0872 56.4656 37.9615 56.1624 37.9615 55.8462C37.9615 55.5299 38.0872 55.2267 38.3108 55.0031C38.5344 54.7795 38.8376 54.6538 39.1538 54.6538H48.6923C49.0085 54.6538 49.3118 54.7795 49.5354 55.0031C49.759 55.2267 49.8846 55.5299 49.8846 55.8462C49.8846 56.1624 49.759 56.4656 49.5354 56.6892C49.3118 56.9128 49.0085 57.0385 48.6923 57.0385H39.1538Z" fill="#F2F2F2"/>
</g>
<defs>
<filter id="filter0_d_353_542" x="8" y="12" width="78" height="79" filterUnits="userSpaceOnUse" color-interpolation-filters="sRGB">
<feFlood flood-opacity="0" result="BackgroundImageFix"/>
<feColorMatrix in="SourceAlpha" type="matrix" values="0 0 0 0 0 0 0 0 0 0 0 0 0 0 0 0 0 0 127 0" result="hardAlpha"/>
<feOffset dy="4"/>
<feGaussianBlur stdDeviation="2"/>
<feComposite in2="hardAlpha" operator="out"/>
<feColorMatrix type="matrix" values="0 0 0 0 0 0 0 0 0 0 0 0 0 0 0 0 0 0 0.25 0"/>
<feBlend mode="normal" in2="BackgroundImageFix" result="effect1_dropShadow_353_542"/>
<feBlend mode="normal" in="SourceGraphic" in2="effect1_dropShadow_353_542" result="shape"/>
</filter>
<linearGradient id="paint0_linear_353_542" x1="47" y1="0" x2="47" y2="95" gradientUnits="userSpaceOnUse">
<stop stop-color="#00CCCC"/>
<stop offset="1.0001" stop-color="#32527B"/>
</linearGradient>
<linearGradient id="paint1_linear_353_542" x1="47" y1="-35.0135" x2="47" y2="195.257" gradientUnits="userSpaceOnUse">
<stop stop-color="#999999"/>
<stop offset="0.0001" stop-color="#898E94"/>
<stop offset="1" stop-color="white"/>
</linearGradient>
<linearGradient id="paint2_linear_353_542" x1="47" y1="-111.291" x2="47" y2="147.284" gradientUnits="userSpaceOnUse">
<stop stop-color="#477CA8"/>
<stop offset="0.716291" stop-color="#32527B" stop-opacity="0.6"/>
</linearGradient>
</defs>
</svg>
