<svg width="94" height="95" viewBox="0 0 94 95" fill="none" xmlns="http://www.w3.org/2000/svg">
<rect width="94" height="95" rx="47" fill="url(#paint0_linear_353_492)" fill-opacity="0.05"/>
<g filter="url(#filter0_d_353_492)">
<rect x="12" y="12" width="70" height="71" rx="35" fill="url(#paint1_linear_353_492)" fill-opacity="0.2" shape-rendering="crispEdges"/>
<rect x="12.5" y="12.5" width="69" height="70" rx="34.5" stroke="url(#paint2_linear_353_492)" stroke-opacity="0.2" shape-rendering="crispEdges"/>
<path d="M53.5341 37.5009C51.7795 35.5266 49.8048 33.7488 47.6463 32.2004C47.4552 32.07 47.2276 32 46.9943 32C46.761 32 46.5334 32.07 46.3423 32.2004C44.1879 33.7494 42.2169 35.5272 40.4659 37.5009C36.5611 41.87 34.5 46.4757 34.5 50.8213C34.5 54.0513 35.817 57.149 38.1612 59.4329C40.5054 61.7169 43.6848 63 47 63C50.3152 63 53.4946 61.7169 55.8388 59.4329C58.183 57.149 59.5 54.0513 59.5 50.8213C59.5 46.4757 57.4389 41.87 53.5341 37.5009ZM47 60.7857C44.2885 60.7828 41.6889 59.732 39.7715 57.864C37.8542 55.9959 36.7757 53.4631 36.7727 50.8213C36.7727 42.901 44.652 36.2899 47 34.4908C49.348 36.2899 57.2273 42.8982 57.2273 50.8213C57.2243 53.4631 56.1458 55.9959 54.2285 57.864C52.3111 59.732 49.7115 60.7828 47 60.7857Z" fill="#F2F2F2"/>
</g>
<defs>
<filter id="filter0_d_353_492" x="8" y="12" width="78" height="79" filterUnits="userSpaceOnUse" color-interpolation-filters="sRGB">
<feFlood flood-opacity="0" result="BackgroundImageFix"/>
<feColorMatrix in="SourceAlpha" type="matrix" values="0 0 0 0 0 0 0 0 0 0 0 0 0 0 0 0 0 0 127 0" result="hardAlpha"/>
<feOffset dy="4"/>
<feGaussianBlur stdDeviation="2"/>
<feComposite in2="hardAlpha" operator="out"/>
<feColorMatrix type="matrix" values="0 0 0 0 0 0 0 0 0 0 0 0 0 0 0 0 0 0 0.25 0"/>
<feBlend mode="normal" in2="BackgroundImageFix" result="effect1_dropShadow_353_492"/>
<feBlend mode="normal" in="SourceGraphic" in2="effect1_dropShadow_353_492" result="shape"/>
</filter>
<linearGradient id="paint0_linear_353_492" x1="47" y1="0" x2="47" y2="95" gradientUnits="userSpaceOnUse">
<stop stop-color="#00CCCC"/>
<stop offset="1.0001" stop-color="#32527B"/>
</linearGradient>
<linearGradient id="paint1_linear_353_492" x1="47" y1="-35.0135" x2="47" y2="195.257" gradientUnits="userSpaceOnUse">
<stop stop-color="#999999"/>
<stop offset="0.0001" stop-color="#898E94"/>
<stop offset="1" stop-color="white"/>
</linearGradient>
<linearGradient id="paint2_linear_353_492" x1="47" y1="-111.291" x2="47" y2="147.284" gradientUnits="userSpaceOnUse">
<stop stop-color="#477CA8"/>
<stop offset="0.716291" stop-color="#32527B" stop-opacity="0.6"/>
</linearGradient>
</defs>
</svg>
