<svg width="19" height="15" viewBox="0 0 19 15" fill="none" xmlns="http://www.w3.org/2000/svg">
<path d="M19 1.78181C18.3013 2.07471 17.5409 2.28551 16.7577 2.36761C17.5709 1.89816 18.1798 1.15652 18.4703 0.281814C17.7072 0.722914 16.8713 1.03222 15.9996 1.19601C15.6353 0.817523 15.1947 0.516 14.7052 0.310233C14.2157 0.104466 13.6879 -0.00113561 13.1545 9.20947e-06C10.9968 9.20947e-06 9.26139 1.69971 9.26139 3.78551C9.26139 4.07841 9.29792 4.37131 9.35729 4.65311C6.12631 4.48891 3.24468 2.98891 1.32893 0.692316C0.979856 1.27171 0.79693 1.93143 0.799183 2.60282C0.799183 3.91643 1.48648 5.07471 2.53455 5.75592C1.91691 5.73229 1.31373 5.56731 0.774066 5.27441V5.32101C0.774066 7.16051 2.11213 8.68492 3.89545 9.03551C3.56061 9.12003 3.21616 9.16327 2.87021 9.16421C2.61675 9.16421 2.377 9.1398 2.13496 9.10651C2.62817 10.6065 4.06442 11.696 5.77467 11.7315C4.43661 12.75 2.76061 13.3491 0.940752 13.3491C0.614229 13.3491 0.312823 13.338 0 13.3025C1.72623 14.3787 3.77443 15 5.98017 15C13.1408 15 17.0591 9.23521 17.0591 4.23152C17.0591 4.06731 17.0591 3.90311 17.0477 3.73891C17.8058 3.19971 18.4703 2.53181 19 1.78181Z" fill="white"/>
</svg>
