<svg width="446" height="643" viewBox="0 0 446 643" fill="none" xmlns="http://www.w3.org/2000/svg">
<g style="mix-blend-mode:soft-light">
<path d="M155.813 453.647L96.748 233.701L320.429 218.837L155.813 453.647Z" stroke="white" stroke-width="0.22" stroke-miterlimit="10"/>
<path d="M282.858 236.386L155.501 453.691L83.3152 307.907L282.858 236.386Z" stroke="white" stroke-width="0.22" stroke-miterlimit="10"/>
<path d="M321.003 218.989L70.6533 397.438L96.7627 233.89L321.003 218.989Z" stroke="white" stroke-width="0.22" stroke-miterlimit="10"/>
<path d="M154.997 453.83L69.7082 396.901L266.327 294.483L154.997 453.83Z" stroke="white" stroke-width="0.22" stroke-miterlimit="10"/>
<path d="M112.94 426.201L266.738 294.263" stroke="white" stroke-width="0.22" stroke-miterlimit="10"/>
<path d="M155.354 453.711L204.136 226.674" stroke="white" stroke-width="0.22" stroke-miterlimit="10"/>
<path d="M321.197 218.758L91.851 266.126" stroke="white" stroke-width="0.22" stroke-miterlimit="10"/>
<path d="M266.904 294.67L97.2604 233.902" stroke="white" stroke-width="0.22" stroke-miterlimit="10"/>
<path d="M113.479 426.126L277.884 221.323" stroke="white" stroke-width="0.22" stroke-miterlimit="10"/>
<path d="M320.981 218.17L90.7153 411.357" stroke="white" stroke-width="0.22" stroke-miterlimit="10"/>
</g>
<g style="mix-blend-mode:soft-light">
<path d="M-123.458 277.954L161.676 332.785L190.996 162.609L-123.458 277.954Z" stroke="white" stroke-width="0.22" stroke-miterlimit="10"/>
<path d="M166.362 190.51L-123.544 278.174L63.9863 339.75L166.362 190.51Z" stroke="white" stroke-width="0.22" stroke-miterlimit="10"/>
<path d="M190.945 162.169L-53.4044 345.37L161.571 332.653L190.945 162.169Z" stroke="white" stroke-width="0.22" stroke-miterlimit="10"/>
<path d="M-123.67 278.495L-53.0283 346.117L89.5499 200.568L-123.67 278.495Z" stroke="white" stroke-width="0.22" stroke-miterlimit="10"/>
<path d="M-89.5438 312.036L90.0801 200.199" stroke="white" stroke-width="0.22" stroke-miterlimit="10"/>
<path d="M-123.587 278.283L175.795 251.04" stroke="white" stroke-width="0.22" stroke-miterlimit="10"/>
<path d="M191.317 162.117L119.356 334.865" stroke="white" stroke-width="0.22" stroke-miterlimit="10"/>
<path d="M89.7543 200.173L161.559 332.159" stroke="white" stroke-width="0.22" stroke-miterlimit="10"/>
<path d="M-89.3593 311.564L186.072 194.928" stroke="white" stroke-width="0.22" stroke-miterlimit="10"/>
<path d="M192.163 162.066L-71.068 329.7" stroke="white" stroke-width="0.22" stroke-miterlimit="10"/>
</g>
<g style="mix-blend-mode:soft-light">
<path d="M91.4754 186.013L-248.778 382.404L-203.398 208.25L91.4754 186.013Z" stroke="white" stroke-width="0.22" stroke-miterlimit="10"/>
<path d="M-188.522 226.863L91.5588 185.765L-143.634 342.964L-188.522 226.863Z" stroke="white" stroke-width="0.22" stroke-miterlimit="10"/>
<path d="M91.5075 185.411L-17.0127 293.326L-107.69 200.731L91.5075 185.411Z" stroke="white" stroke-width="0.22" stroke-miterlimit="10"/>
<path d="M37.8441 238.592L-107.793 200.997" stroke="white" stroke-width="0.22" stroke-miterlimit="10"/>
<path d="M91.6356 185.605L-227.136 298.153" stroke="white" stroke-width="0.22" stroke-miterlimit="10"/>
<path d="M37.7049 238.946L-211.711 241.152" stroke="white" stroke-width="0.22" stroke-miterlimit="10"/>
<path d="M-202.839 208.255L8.80995 267.388" stroke="white" stroke-width="0.22" stroke-miterlimit="10"/>
</g>
<g style="mix-blend-mode:soft-light">
<path d="M325.425 391.293L-14.8292 587.684L30.5507 413.53L325.425 391.293Z" stroke="white" stroke-width="0.22" stroke-miterlimit="10"/>
<path d="M45.4271 432.143L325.507 391.045L90.3145 548.244L45.4271 432.143Z" stroke="white" stroke-width="0.22" stroke-miterlimit="10"/>
<path d="M30.1289 413.939L215.653 499.707L-15.127 587.618L30.1289 413.939Z" stroke="white" stroke-width="0.22" stroke-miterlimit="10"/>
<path d="M325.457 390.691L216.936 498.607L126.267 406.02L325.457 390.691Z" stroke="white" stroke-width="0.22" stroke-miterlimit="10"/>
<path d="M271.792 443.872L126.163 406.285" stroke="white" stroke-width="0.22" stroke-miterlimit="10"/>
<path d="M325.584 390.886L6.82057 503.442" stroke="white" stroke-width="0.22" stroke-miterlimit="10"/>
<path d="M30.1372 414.241L30.6875 570.21" stroke="white" stroke-width="0.22" stroke-miterlimit="10"/>
<path d="M125.202 406.817L-15.3408 587.935" stroke="white" stroke-width="0.22" stroke-miterlimit="10"/>
<path d="M271.653 444.226L22.2457 446.44" stroke="white" stroke-width="0.22" stroke-miterlimit="10"/>
<path d="M31.11 413.535L242.759 472.668" stroke="white" stroke-width="0.22" stroke-miterlimit="10"/>
</g>
<g style="mix-blend-mode:overlay">
<path d="M124.251 407.859C124.42 408.035 124.688 408.14 125.021 408.159C125.354 408.179 125.736 408.113 126.12 407.969C126.504 407.826 126.872 407.611 127.178 407.353C127.484 407.095 127.714 406.804 127.839 406.519C127.963 406.233 127.977 405.964 127.878 405.747C127.78 405.53 127.573 405.374 127.285 405.298C126.996 405.223 126.638 405.232 126.257 405.324C125.876 405.416 125.488 405.587 125.142 405.815C124.679 406.121 124.325 406.508 124.158 406.892C123.991 407.275 124.024 407.623 124.251 407.859Z" fill="white"/>
<path d="M135.834 373.522C136.062 373.76 136.197 374.052 136.219 374.36C136.242 374.668 136.152 374.977 135.961 375.247C135.769 375.518 135.486 375.738 135.146 375.879C134.807 376.02 134.427 376.075 134.056 376.037C133.685 376 133.34 375.871 133.065 375.668C132.79 375.465 132.598 375.197 132.514 374.898C132.43 374.6 132.457 374.284 132.593 373.993C132.728 373.701 132.965 373.447 133.274 373.262C133.67 373.026 134.157 372.921 134.633 372.969C135.11 373.017 135.54 373.215 135.834 373.522Z" fill="white"/>
<path d="M44.1711 433.654C44.2803 433.773 44.456 433.844 44.6756 433.86C44.8953 433.875 45.149 433.832 45.4042 433.738C45.6594 433.644 45.9046 433.502 46.1084 433.331C46.3121 433.16 46.4652 432.967 46.548 432.777C46.6308 432.587 46.6396 432.408 46.5732 432.265C46.5068 432.121 46.3683 432.018 46.1754 431.969C45.9824 431.92 45.7438 431.928 45.4901 431.991C45.2364 432.054 44.9792 432.17 44.7512 432.323C44.4496 432.522 44.2191 432.774 44.1103 433.024C44.0015 433.273 44.0234 433.5 44.1711 433.654Z" fill="white"/>
<path d="M120.291 334.276C119.689 333.65 118.613 333.53 117.889 334.009C117.164 334.488 117.065 335.383 117.666 336.01C118.268 336.636 119.344 336.755 120.069 336.276C120.793 335.798 120.893 334.902 120.291 334.276Z" fill="white"/>
<path d="M159.334 333.485C159.635 333.799 160.039 334.033 160.494 334.159C160.95 334.284 161.436 334.295 161.892 334.191C162.347 334.086 162.752 333.87 163.054 333.57C163.357 333.27 163.543 332.9 163.591 332.506C163.638 332.112 163.544 331.713 163.32 331.358C163.096 331.003 162.753 330.708 162.333 330.512C161.914 330.315 161.437 330.225 160.963 330.253C160.49 330.281 160.04 330.426 159.672 330.669C159.183 330.999 158.873 331.478 158.81 332.005C158.747 332.531 158.935 333.063 159.334 333.485Z" fill="white"/>
<path d="M10.7601 265.598C10.2563 265.074 9.01405 265.2 7.98552 265.879C6.95699 266.559 6.53166 267.534 7.0355 268.059C7.53933 268.583 8.78152 268.457 9.81005 267.777C10.8386 267.098 11.264 266.122 10.7601 265.598Z" fill="white"/>
<path d="M51.849 251.36C52.0725 251.593 52.207 251.876 52.2354 252.173C52.2637 252.471 52.1847 252.769 52.0083 253.031C51.8318 253.293 51.5659 253.507 51.2442 253.646C50.9224 253.784 50.5593 253.841 50.2006 253.809C49.842 253.777 49.504 253.657 49.2294 253.466C48.9548 253.274 48.7559 253.019 48.6579 252.733C48.5598 252.446 48.567 252.141 48.6786 251.856C48.7901 251.571 49.0011 251.319 49.2847 251.131C49.6649 250.88 50.1487 250.763 50.6296 250.806C51.1105 250.849 51.5491 251.048 51.849 251.36Z" fill="white"/>
<path d="M172.997 375.05C172.471 374.502 171.513 374.41 170.858 374.843C170.202 375.276 170.097 376.07 170.624 376.617C171.15 377.165 172.107 377.257 172.763 376.824C173.418 376.391 173.523 375.597 172.997 375.05Z" fill="white"/>
</g>
</svg>
