<svg width="19" height="12" viewBox="0 0 19 12" fill="none" xmlns="http://www.w3.org/2000/svg">
<path d="M16.0847 0.995435C14.8527 0.526955 13.5527 0.192592 12.2171 0.000683453C12.205 -0.00100511 12.1925 0.000453245 12.1815 0.00485804C12.1704 0.00926284 12.1613 0.0163977 12.1553 0.0252816C11.9879 0.271264 11.8026 0.593008 11.6732 0.844894C10.2335 0.663859 8.76907 0.663859 7.32937 0.844894C7.18499 0.564297 7.02165 0.29066 6.84013 0.0252816C6.83404 0.016495 6.82488 0.00944233 6.81386 0.00505169C6.80283 0.000661052 6.79047 -0.000861784 6.77838 0.000683453C5.44246 0.191566 4.14216 0.526101 2.91073 0.995435C2.9002 0.998767 2.89138 1.00503 2.8858 1.01315C0.422946 4.06234 -0.252734 7.03675 0.0785747 9.97378C0.0797622 9.98756 0.0904496 10.0013 0.103512 10.0102C1.53767 10.8904 3.14181 11.5625 4.84752 11.9977C4.85957 12.0009 4.87251 12.0008 4.88447 11.9974C4.89643 11.994 4.90678 11.9876 4.91402 11.979C5.27977 11.5658 5.60514 11.1299 5.88539 10.6714C5.89123 10.6619 5.89323 10.6512 5.89109 10.6407C5.88895 10.6303 5.88278 10.6207 5.87351 10.6133C5.86738 10.6085 5.8601 10.6048 5.85214 10.6025C5.34052 10.4396 4.84502 10.2439 4.37015 10.0171C4.35689 10.0108 4.34703 10.0006 4.34261 9.98854C4.33818 9.97645 4.33954 9.96341 4.3464 9.95213C4.35045 9.94481 4.35655 9.9384 4.36422 9.93344C4.46397 9.87145 4.56372 9.80651 4.65871 9.74157C4.66711 9.73598 4.67718 9.73239 4.68784 9.73117C4.69851 9.72996 4.70938 9.73118 4.71928 9.73469C7.82931 10.9115 11.1958 10.9115 14.2679 9.73469C14.2781 9.731 14.2894 9.7297 14.3005 9.73091C14.3116 9.73213 14.322 9.73581 14.3308 9.74157C14.4258 9.80651 14.5255 9.87145 14.6253 9.93344C14.6334 9.93833 14.6399 9.94481 14.6442 9.95229C14.6485 9.95978 14.6505 9.96803 14.6501 9.97631C14.6496 9.9846 14.6466 9.99266 14.6415 9.99977C14.6363 10.0069 14.6291 10.0128 14.6205 10.0171C14.1468 10.2459 13.6506 10.4414 13.1374 10.6015C13.1292 10.604 13.1218 10.6079 13.1156 10.613C13.1094 10.6181 13.1047 10.6243 13.1017 10.631C13.099 10.6376 13.0979 10.6446 13.0985 10.6515C13.0991 10.6585 13.1014 10.6652 13.1053 10.6714C13.3903 11.1289 13.7169 11.5658 14.0755 11.979C14.0827 11.9876 14.0931 11.994 14.105 11.9974C14.117 12.0008 14.1299 12.0009 14.142 11.9977C15.8506 11.5638 17.4573 10.8917 18.8931 10.0102C18.9003 10.0061 18.9063 10.0006 18.9106 9.99434C18.9149 9.98804 18.9175 9.98101 18.9181 9.97378C19.3147 6.57824 18.2543 3.62843 16.1085 1.01413C16.1063 1.00981 16.1031 1.00592 16.099 1.0027C16.0949 0.999477 16.09 0.997003 16.0847 0.995435ZM6.3497 8.185C5.41277 8.185 4.64209 7.47263 4.64209 6.59891C4.64209 5.72419 5.39852 5.01183 6.3497 5.01183C7.308 5.01183 8.07155 5.7301 8.0573 6.59891C8.0573 7.47263 7.30087 8.185 6.3497 8.185ZM12.6624 8.185C11.7266 8.185 10.9548 7.47263 10.9548 6.59891C10.9548 5.72419 11.7112 5.01183 12.6624 5.01183C13.6207 5.01183 14.3854 5.7301 14.37 6.59891C14.37 7.47263 13.6207 8.185 12.6624 8.185Z" fill="white"/>
</svg>
