<svg width="24" height="25" viewBox="0 0 24 25" fill="none" xmlns="http://www.w3.org/2000/svg">
<path d="M3.15 6.6C4.8897 6.6 6.3 5.12254 6.3 3.3C6.3 1.47746 4.8897 0 3.15 0C1.4103 0 0 1.47746 0 3.3C0 5.12254 1.4103 6.6 3.15 6.6Z" fill="white"/>
<path d="M5.45816 8.7H0.541817C0.408259 8.7 0.299988 8.80627 0.299988 8.93737V24.3626C0.299988 24.4937 0.408259 24.6 0.541817 24.6H5.45816C5.59172 24.6 5.69999 24.4937 5.69999 24.3626V8.93737C5.69999 8.80627 5.59172 8.7 5.45816 8.7Z" fill="white"/>
<path d="M24 14.4873V23.5354C24 24.1208 23.5138 24.6 22.9199 24.6H19.6797C19.0858 24.6 18.5996 24.1208 18.5996 23.5354V16.0835C18.5996 14.6146 17.3903 13.4228 15.9 13.4228C14.4096 13.4228 13.2004 14.6146 13.2004 16.0835V23.5354C13.2004 24.1208 12.7142 24.6 12.1203 24.6H8.88007C8.28622 24.6 7.79999 24.1208 7.79999 23.5354V9.69621C7.79999 9.11089 8.28622 8.63165 8.88007 8.63165H12.1203C12.7142 8.63165 13.2004 9.11089 13.2004 9.69621V10.3776C14.2805 8.99857 16.0684 8.1 18.0602 8.1C21.0408 8.1 24 10.2291 24 14.4873Z" fill="white"/>
</svg>
